<?xml version="1.0" encoding="UTF-8"?>
<svg id="icons" xmlns="http://www.w3.org/2000/svg" viewBox="0 0 1000 1000">
  <defs>
    <style>
      .cls-1 {
        fill: #03a7fb;
      }

      .cls-2 {
        fill: #00a6fb;
      }

      .cls-3 {
        fill: #f4f7f5;
      }
    </style>
  </defs>
  <rect class="cls-3" width="1000" height="1000"/>
  <g>
    <polygon class="cls-1" points="423.92 853.17 423.92 837.7 481.73 837.7 481.73 845.29 481.73 853.17 423.92 853.17"/>
    <path class="cls-3" d="m132.66,509.63c-.48-6.87-.76-13.76-.87-20.64h199.06c.32,9.66,1.45,19.29,3.41,28.76,3.99,19.34,11.43,37.95,21.84,54.71,10.4,16.77,23.76,31.69,39.26,43.89.84.67,1.68,1.32,2.54,1.97v16.3c-4.31,1.13-10,2.73-16.4,4.8l-10.93,3.78c-26.48,9.82-57.95,26.47-57.95,50.13s-2.91,70.25-5.29,103.88c-30.62-18.84-58.49-42.17-82.4-69.02-26.79-30.06-48.63-64.53-64.3-101.62-15.69-37.08-25.16-76.77-27.97-116.94Z"/>
    <path class="cls-3" d="m758.47,220.99l-141.86,139.64c-3.59-3.41-7.32-6.66-11.19-9.74-15.43-12.31-33.02-21.9-51.75-28.14-15.47-5.18-31.7-8.05-47.99-8.59V115.09c38.07.57,76.04,7,112.1,19.19,38.16,12.85,74.14,32.09,106.1,56.59,12.14,9.31,23.7,19.38,34.59,30.12Z"/>
    <rect class="cls-1" x="523.87" y="856.95" width="57.81" height="39.34"/>
    <path class="cls-1" d="m484.49,471.69v-68.28l-12.67-21.98c8.39-3.21,17.47-4.96,26.92-4.96s18.52,1.75,26.93,4.96l-12.68,21.98v68.28h32.49v-7.56h-24.93v-58.69l12.08-20.94c26.44,13.26,44.71,41.56,44.71,74.34,0,7.19-.89,14.16-2.56,20.81h3.49c2.44,0,4.44,1.99,4.44,4.44v2.91h-167.94v-2.91c0-2.45,1.99-4.44,4.43-4.44h3.49c-1.65-6.65-2.55-13.62-2.55-20.81,0-32.78,18.26-61.08,44.72-74.34l12.08,20.94v58.69h-24.95v7.56h32.5Z"/>
    <path class="cls-3" d="m374.67,369.64c-9.18,10.12-17.17,21.3-23.66,33.33-9.39,17.36-15.69,36.39-18.5,55.92-.9,6.22-1.45,12.48-1.66,18.76h-199.06c.45-29.6,4.4-59.15,11.9-87.78,10.18-38.96,26.87-76.19,49.13-109.75,11.81-17.84,25.21-34.63,39.94-50.16l141.91,139.68Z"/>
    <path class="cls-3" d="m602.12,635.29v-16.99c3.3-2.49,6.5-5.1,9.6-7.83,14.82-13.02,27.35-28.64,36.83-45.95,9.5-17.3,15.9-36.3,18.82-55.82.98-6.53,1.57-13.12,1.79-19.71h199.06c-.09,6.26-.33,12.53-.74,18.78-2.61,40.19-11.86,79.92-27.37,117.08-15.48,37.17-37.14,71.75-63.79,101.94-24.81,28.16-53.94,52.49-86.06,71.9-2.4-33.75-5.39-80.86-5.39-105.36,0-21.39-25.75-37.05-50.26-47.12l-10.87-4.15c-8.25-2.94-15.84-5.19-21.62-6.77Z"/>
    <path class="cls-2" d="m459.99,617c15.12,17.85,62.39,17.85,77.5,0l16.63-19.66v25.7l22.46,5.77-48.06,134.54-6.92,19.39-1.73,4.84c-.66,1.84-1.14,3.48-1.66,5.21-1,3.41-1.9,6.84-2.7,10.31-1.56,6.94-2.73,14.03-2.96,21.46v20.73s-.01,51-.01,51h-19.46v-51l-.04-20.73c-.2-7.43-1.4-14.52-2.95-21.46-.78-3.47-1.68-6.9-2.7-10.31-.5-1.73-1-3.37-1.67-5.21l-1.72-4.84-6.92-19.39-48.75-136.44,15.04-3.87v-25.7l16.62,19.66Z"/>
    <path class="cls-3" d="m644.42,395.01c-5.74-9.39-12.44-18.17-19.89-26.27l141.89-139.66c14.63,15.32,27.96,31.89,39.75,49.49,22.43,33.45,39.31,70.59,49.68,109.5,7.81,29.19,11.93,59.36,12.39,89.58h-199.08c-.31-9.34-1.37-18.65-3.21-27.82-3.87-19.35-11.2-38.01-21.53-54.82Z"/>
    <path class="cls-2" d="m440.55,530.83l53.66-30.98v-3.02h-53.66v34Zm-10.2,11.34s-3.78-15.11-3.78-21.16,7.92-9.07,7.92-9.07v-21.16h128.49v21.16s7.94,3.02,7.94,9.07-3.79,21.16-3.79,21.16l-7.54,10.58-5.3,29.17-23.43,28.27s-10.58,12.85-29.48,12.85h-5.28c-18.9,0-29.48-12.85-29.48-12.85l-23.43-28.27-5.29-29.17-7.55-10.58Z"/>
    <path class="cls-3" d="m382.54,361.48l-141.87-139.64c10.71-10.62,22.07-20.59,34-29.83,31.82-24.67,67.71-44.08,105.8-57.13,36.59-12.57,75.18-19.21,113.87-19.78v199.07c-19.35.62-38.62,4.58-56.63,11.73-18.36,7.26-35.4,17.79-50.14,30.9-1.71,1.53-3.38,3.09-5.03,4.68Z"/>
    <polygon class="cls-1" points="481.73 856.95 481.73 896.29 480.39 896.29 423.92 896.29 423.92 856.95 481.73 856.95"/>
    <polygon class="cls-1" points="523.88 837.7 581.68 837.7 581.68 853.17 523.87 853.17 523.87 845.29 523.88 837.7"/>
    <path class="cls-2" d="m624.53,368.74c7.45,8.1,14.15,16.88,19.89,26.27,10.33,16.81,17.66,35.47,21.53,54.82,1.84,9.17,2.9,18.48,3.21,27.82h199.08c-.46-30.22-4.58-60.39-12.39-89.58-10.37-38.91-27.25-76.05-49.68-109.5-11.79-17.6-25.12-34.17-39.75-49.49l-141.89,139.66Zm-130.19-54.57V115.1c-38.69.57-77.28,7.21-113.87,19.78-38.09,13.05-73.98,32.46-105.8,57.13-11.93,9.24-23.29,19.21-34,29.83l141.87,139.64c1.65-1.59,3.32-3.15,5.03-4.68,14.74-13.11,31.78-23.64,50.14-30.9,18.01-7.15,37.28-11.11,56.63-11.73Zm-143.33,88.8c6.49-12.03,14.48-23.21,23.66-33.33l-141.91-139.68c-14.73,15.53-28.13,32.32-39.94,50.16-22.26,33.56-38.95,70.79-49.13,109.75-7.5,28.63-11.45,58.18-11.9,87.78h199.06c.21-6.28.76-12.54,1.66-18.76,2.81-19.53,9.11-38.56,18.5-55.92Zm251.11,232.32c5.78,1.58,13.37,3.83,21.62,6.77l10.87,4.15c24.51,10.07,50.26,25.73,50.26,47.12,0,24.5,2.99,71.61,5.39,105.36,32.12-19.41,61.25-43.74,86.06-71.9,26.65-30.19,48.31-64.77,63.79-101.94,15.51-37.16,24.76-76.89,27.37-117.08.41-6.25.65-12.52.74-18.78h-199.06c-.22,6.59-.81,13.18-1.79,19.71-2.92,19.52-9.32,38.52-18.82,55.82-9.48,17.31-22.01,32.93-36.83,45.95-3.1,2.73-6.3,5.34-9.6,7.83v16.99Zm-96.44-321.13c16.29.54,32.52,3.41,47.99,8.59,18.73,6.24,36.32,15.83,51.75,28.14,3.87,3.08,7.6,6.33,11.19,9.74l141.86-139.64c-10.89-10.74-22.45-20.81-34.59-30.12-31.96-24.5-67.94-43.74-106.1-56.59-36.06-12.19-74.03-18.62-112.1-19.19v199.07Zm-194.44,576.11h59.41v-5.86l-27.52-21.91-13.72-104.71h-10.96l-7.21,87.64v44.84Zm-179.45-401.28c.11,6.88.39,13.77.87,20.64,2.81,40.17,12.28,79.86,27.97,116.94,15.67,37.09,37.51,71.56,64.3,101.62,23.91,26.85,51.78,50.18,82.4,69.02,2.38-33.63,5.29-79.74,5.29-103.88s31.47-40.31,57.95-50.13l10.93-3.78c6.4-2.07,12.09-3.67,16.4-4.8v-16.3c-.86-.65-1.7-1.3-2.54-1.97-15.5-12.2-28.86-27.12-39.26-43.89-10.41-16.76-17.85-35.37-21.84-54.71-1.96-9.47-3.09-19.1-3.41-28.76h-199.06Zm250.19,407.3h-77.68v-58.61s.91-11.25,2.12-27.79c-33.55-19.92-64.01-45.02-89.95-74.16-27.62-30.98-50.13-66.51-66.28-104.75-16.18-38.23-25.94-79.15-28.84-120.55-2.92-41.39.86-83.27,11.38-123.43,10.48-40.16,27.69-78.56,50.64-113.14,22.92-34.6,51.54-65.4,84.36-90.81,32.8-25.43,69.79-45.44,109.07-58.9,39.26-13.49,80.76-20.36,122.25-20.44,41.49-.13,83.03,6.54,122.36,19.82,39.34,13.26,76.43,33.09,109.36,58.34,32.94,25.25,61.72,55.9,84.82,90.4,23.12,34.46,40.52,72.76,51.21,112.87,10.73,40.11,14.71,81.97,12,123.37-2.7,41.41-12.24,82.39-28.23,120.7-15.95,38.33-38.29,73.96-65.74,105.08-26.85,30.45-58.59,56.57-93.66,77.04,1.16,15.74,2.01,26.35,2.01,26.35v58.61h-69.54v-170.08l9.89-72.13-10.85-4.25-10.38,75.61v170.85h-23.05v-66.15h-65.36v-5.29c.18-6.3,1.24-12.82,2.69-19.25.72-3.22,1.55-6.43,2.5-9.6.47-1.56.97-3.21,1.48-4.6l1.72-4.85,6.92-19.38,48.41-135.52,3.55.91s1.08.23,2.99.69v-29.49h7.97c.71-.6,1.42-1.19,2.12-1.8,13.83-12.16,25.53-26.74,34.37-42.89,8.85-16.14,14.82-33.85,17.55-52.05,2.74-18.21,2.3-36.91-1.33-54.96-3.61-18.05-10.44-35.44-20.07-51.13-9.62-15.7-22-29.71-36.41-41.18-14.39-11.48-30.8-20.42-48.27-26.25-17.45-5.84-35.94-8.54-54.36-8.04-18.42.48-36.73,4.19-53.84,10.98-17.11,6.77-33.02,16.59-46.77,28.83-13.76,12.24-25.39,26.89-34.13,43.09-8.76,16.19-14.63,33.93-17.25,52.15-2.63,18.22-2.09,36.93,1.63,54.95,3.72,18.03,10.66,35.38,20.38,51.02,8.68,14.01,19.59,26.63,32.16,37.3h8.41v28.79s.02,0,.02,0l10.99-2.83,49.08,137.44,6.92,19.38,1.74,4.85c.51,1.39,1,3.04,1.46,4.6.94,3.17,1.78,6.38,2.52,9.6,1.45,6.43,2.5,12.95,2.67,19.25v5.29s-65.34,0-65.34,0v66.15h-23.06v-170.85l-10.89-79.36-10.78,4.92,10.34,75.21v170.08Z"/>
  </g>
  <g>
    <path class="cls-1" d="m232.95,640.53c5.48,0,9.92-6.98,9.92-15.6s-4.44-15.61-9.92-15.61-9.91,6.99-9.91,15.61,4.43,15.6,9.91,15.6Zm-.93-36.52h86.23c7.34,0,13.29,9.37,13.29,20.92s-5.96,20.91-13.29,20.91h-86.23c-7.34,0-13.29-9.36-13.29-20.91s5.95-20.92,13.29-20.92Z"/>
    <path class="cls-1" d="m217.43,551.94c4.08,0,7.38-5.19,7.38-11.59s-3.3-11.6-7.38-11.6-7.36,5.19-7.36,11.6,3.3,11.59,7.36,11.59Zm-.3-27.14h64.09c5.45,0,9.88,6.96,9.88,15.54s-4.42,15.55-9.88,15.55h-64.09c-5.46,0-9.88-6.96-9.88-15.55s4.42-15.54,9.88-15.54Z"/>
    <path class="cls-1" d="m298.06,577.95l4.69-2.61c-.9-2.46-2.13-4.79-3.71-6.8-1.58-2-3.54-3.68-5.8-4.65-1.12-.47-2.3-.79-3.5-.88-.3-.02-.61-.03-.89-.04h-31.08v6.35h31.08c.19,0,.37,0,.55.03.72.05,1.45.24,2.15.54,2.8,1.2,5.16,4.33,6.51,8.06Zm-81.67,1.71c0-8.62-4.44-15.6-9.91-15.6s-9.92,6.98-9.92,15.6,4.44,15.61,9.92,15.61,9.91-6.98,9.91-15.61Zm-10.33-20.91h86.24c7.34,0,13.29,9.37,13.29,20.91s-5.95,20.92-13.29,20.92h-86.24c-7.34,0-13.29-9.37-13.29-20.92s5.95-20.91,13.29-20.91Zm49.87,4.23h-5.43v6.35h5.43v-6.35Z"/>
    <path class="cls-1" d="m189.75,640.53c5.48,0,9.92-6.98,9.92-15.6s-4.44-15.61-9.92-15.61-9.91,6.99-9.91,15.61,4.43,15.6,9.91,15.6Zm-.16-36.52h33.45c-4.51,4.27-7.53,12.03-7.53,20.92s3.02,16.65,7.53,20.91h-33.45c-7.34,0-13.29-9.36-13.29-20.91s5.95-20.92,13.29-20.92Z"/>
  </g>
  <g>
    <path class="cls-1" d="m296.65,420.89c10.07,0,18.23,8.16,18.23,18.23s-8.16,18.22-18.23,18.22h-117.57c-10.07,0-18.23-8.16-18.23-18.22s8.16-18.23,18.23-18.23,18.22,8.16,18.22,18.23c0,6.02-2.92,11.35-7.42,14.67h95.96c-4.5-3.32-7.42-8.66-7.42-14.67,0-10.07,8.16-18.23,18.22-18.23Zm11.67,18.23c0-6.45-5.23-11.67-11.67-11.67s-11.67,5.22-11.67,11.67,5.22,11.67,11.67,11.67,11.67-5.23,11.67-11.67Zm-117.57,0c0-6.45-5.23-11.67-11.67-11.67s-11.67,5.22-11.67,11.67,5.23,11.67,11.67,11.67,11.67-5.23,11.67-11.67Z"/>
    <path class="cls-1" d="m297.25,409.4v8.74c-.2,0-.4-.01-.6-.01-9.93,0-18.24,6.9-20.43,16.16h-4.82v-53.57h5.83s20.02,5.41,20.02,28.68Z"/>
    <polygon class="cls-1" points="268.73 439.12 278.67 450.79 237.75 450.79 237.66 450.79 196.74 450.79 206.68 439.12 226.15 439.12 249.27 439.12 268.73 439.12"/>
    <polygon class="cls-1" points="267.35 380.59 267.35 434.29 250.99 434.29 224.81 434.29 208.16 434.29 208.16 380.69 209.52 380.2 237.96 399.45 264.91 379.71 267.35 380.59"/>
    <path class="cls-1" d="m259.06,343.5l-12.17,10.57v10.57l10.34-11.26,1.84-9.88Zm-49.14-7.69l1.08-2.71c1.08-2.7,3.79,0,3.79,0v-8.12h46.22v8.12s2.71-2.7,3.79,0l1.08,2.71-2.43,7.03h-2.44l-2.16,11.63-12.18,13.26s-3.25,2.7-7.3,2.7h-2.94c-4.05,0-7.3-2.7-7.3-2.7l-12.18-13.26-2.16-11.63h-2.44l-2.43-7.03Z"/>
    <polygon class="cls-1" points="258.77 377.5 237.84 392.83 215.83 377.93 222.38 375.58 222.38 365.84 231.04 372.06 236.06 372.06 239.74 372.06 244.77 372.06 253.42 365.84 253.42 375.58 258.77 377.5"/>
    <path class="cls-1" d="m246.02,308.75v14.34h-16.32v-14.34h-2.97v14.34h-15.48c-.4-1.85-.61-3.77-.61-5.74,0-8.17,3.6-15.51,9.3-20.5h5.56v-3.77c3.72-1.91,7.93-2.99,12.41-2.99,5.29,0,10.22,1.51,14.4,4.11v3.95h4.95c4.89,4.92,7.91,11.71,7.91,19.2,0,1.97-.21,3.89-.61,5.74h-15.55v-14.34h-2.97Z"/>
    <path class="cls-1" d="m204.1,380.72v53.57h-4.59c-2.19-9.27-10.5-16.16-20.43-16.16-.18,0-.35,0-.54.01v-8.74c0-23.27,20.02-28.68,20.02-28.68h5.53Z"/>
  </g>
  <g>
    <path class="cls-1" d="m788.59,383.05h6.01s20.64,5.58,20.64,29.57v25.66h-26.65v-55.22Z"/>
    <polygon class="cls-1" points="784.41 382.91 784.41 387.74 754.06 408.88 723.39 389.54 723.39 383.02 724.81 382.52 754.12 402.36 781.9 382 784.41 382.91"/>
    <path class="cls-1" d="m759.78,447.15v-3.47h-3.48v3.47h3.48Zm-15.06-3.47h3.48v-3.48h-3.48v3.48Zm36.11-17.57v1.93h1.93v-1.93h-1.93Zm-26.78,22.78h-3.48v3.48h3.48v-3.48Zm-15.06-5.21h3.48v-3.48h-3.48v3.48Zm9.21,1.73h-3.48v3.48h3.48v-3.48Zm29.44-10.6v1.93h1.94v-1.93h-1.94Zm5.12-.96v-1.93h-1.93v1.93h1.93Zm0,8.71v-1.95h-1.93v1.95h1.93Zm-5.12,0h1.94v-1.95h-1.94v1.95Zm3.19,2.93h1.93v-1.93h-1.93v1.93Zm-1.25-7.77h-1.94v1.94h1.94v-1.94Zm0-14.51h-1.94v1.94h1.94v-1.94Zm0,8.71h-1.94v1.93h1.94v-1.93Zm-48.4,16.98v-3.48h-3.47v3.48h3.47Zm46.46-.51h1.94v-1.93h-1.94v1.93Zm-44.21,5.73h3.48v-3.49h-3.48v3.49Zm9.05-5.21v-3.48h-3.48v3.48h3.48Zm35.17-5.34v1.93h1.94v-1.93h-1.94Zm1.94-14.54h-1.94v1.93h1.94v-1.93Zm-1.94-2.9v1.93h1.94v-1.93h-1.94Zm1.94,25.18v-1.93h-1.94v1.93h1.94Zm1.25-26.15h1.93v-1.94h-1.93v1.94Zm0,12.57v1.94h1.93v-1.94h-1.93Zm-41.84,16.39h3.48v-3.48h-3.48v3.48Zm-2.09-10.42v-3.47h-3.48v3.47h3.48Zm43.92-8.87v1.93h1.93v-1.93h-1.93Zm-47.4-1.57h3.48v-3.47h-3.48v3.47Zm77.27,22.66h-112.06v-5.16h18.66v-9.82h6.87v-14h12.62v-8.35l10.21-7.85v22.35h3.44v-13.26h8.83v19.89h11.23v9.83h4.25v-31.43h10.31v32.65h25.63v5.16Zm-29.87-7.53h1.93v-1.93h-1.93v1.93Zm-26.78-1.23v-3.47h-3.48v3.47h3.48Zm5.73,1.75h-3.48v3.48h3.48v-3.48Zm19.8-26.65v-1.94h-1.94v1.94h1.94Zm-51.88,11h3.47v-3.47h-3.47v3.47Zm5.72,1.73v3.48h3.48v-3.48h-3.48Zm3.48,13.91v-3.48h-3.48v3.48h3.48Zm-9.2-5.21h3.47v-3.47h-3.47v3.47Zm0-5.22h3.47v-3.48h-3.47v3.48Zm53.13-7.52h1.93v-1.93h-1.93v1.93Zm-36.11,19.68v3.48h3.48v-3.48h-3.48Zm-17.02,3.49h3.47v-3.49h-3.47v3.49Zm53.13-2.82h1.93v-1.93h-1.93v1.93Zm-15.49,1.08v-3.47h-3.47v3.47h3.47Zm-40.13-4.1v-3.63h-3.63v3.63h3.63Z"/>
    <polygon class="cls-1" points="775.57 379.73 753.99 395.54 731.3 380.17 738.06 377.75 738.06 367.71 746.98 374.13 752.16 374.13 755.95 374.13 761.13 374.13 770.05 367.71 770.05 377.75 775.57 379.73"/>
    <path class="cls-1" d="m725.95,317.72c0-8.43,3.71-15.98,9.59-21.13h5.72v-3.89c3.84-1.97,8.18-3.08,12.79-3.08,5.45,0,10.54,1.55,14.85,4.23v4.07h5.1c5.04,5.08,8.16,12.07,8.16,19.79,0,2.03-.22,4.01-.63,5.92h-16.03v-14.78h-3.07v14.78h-16.82v-14.78h-3.07v14.78h-15.96c-.41-1.91-.63-3.89-.63-5.92Z"/>
    <path class="cls-1" d="m730.23,344h-2.51l-2.51-7.25,1.11-2.79c1.12-2.79,3.91,0,3.91,0v-8.37h47.65v8.37s2.79-2.79,3.9,0l1.12,2.79-2.51,7.25h-2.51l-2.24,11.99-12.55,13.66s-3.34,2.79-7.53,2.79h-3.02c-4.19,0-7.54-2.79-7.54-2.79l-12.55-13.66-2.23-11.99Zm43.75,10.86l1.89-10.18-12.55,10.89v10.9l10.66-11.61Z"/>
    <path class="cls-1" d="m692.87,412.62c0-23.99,20.64-29.57,20.64-29.57h5.71v55.22h-26.34v-25.66Z"/>
  </g>
  <g>
    <path class="cls-1" d="m449.78,242.44c0-3.04-2.48-5.52-5.54-5.52s-5.54,2.48-5.54,5.52,2.48,5.55,5.54,5.55,5.54-2.48,5.54-5.55Zm7.12-9.45v9.89l-5.19,9.01h-14.95l-5.19-9.01v-9.89h25.33Z"/>
    <path class="cls-1" d="m446.96,242.44c0,1.51-1.22,2.73-2.72,2.73s-2.71-1.23-2.71-2.73,1.21-2.71,2.71-2.71,2.72,1.21,2.72,2.71Z"/>
    <polygon class="cls-1" points="431.04 227.16 443.49 227.16 444.99 227.16 457.44 227.16 457.44 230.3 431.04 230.3 431.04 227.16"/>
    <path class="cls-1" d="m428.73,202.16l-7.59,6.77h10.51l7.59-6.77h-10.51Zm26.85,0h-12.57l-7.58,6.77h12.57l7.58-6.77Zm3.78,0l-7.58,6.77h18.09v-6.77h-10.52Zm-96.81,39.45l-3.31,1.88v4.05l3.31,1.88,6.85-3.9-6.85-3.9Zm-.29-36.7c2.63,0,4.86,1.68,5.7,4.02h9.04v-6.77h-17.75v3.56c.89-.51,1.92-.81,3.02-.81Zm3.61,46.41l6.56,3.73,4.56-2.61v-2.59l-4.26-2.43-6.87,3.9Zm30.17-49.15h-14.01v6.77h6.42l7.59-6.77Zm-26.94,31.91l-6.55-3.73-3.31,1.87v3.71l3.31,1.88,6.55-3.74Zm0,22.87l-6.55-3.72-3.31,1.87v3.71l3.31,1.89,6.55-3.74Zm7.9-57.44v-1.54h5.04v1.54h16.98l.11-.11.09.11h14.52l.12-.11.09.11h6.8l-61.13-38.11.61-.96,62.04,38.65-.26.42h5.91l.12-.11.09.11h14.08l.12-.11.09.11h16.14l.11-.11.09.11h14.74v9.42h12.86v2.66h-41.37v15.58h-1.5v-15.58h-61.44v97.34h15.55v7.75h-50.92v-7.75h7.54v-92.72h-23.77v-4.72h23.77v-9.32h-4.77v-2.65h4.77v-1.64h5.03v1.64h17.75Zm-14.45,73.6l7.57-4.32-7.57-4.32-3.31,1.89v4.86l3.31,1.89Zm0,11.27l6.55-3.73-6.55-3.74-3.31,1.89v3.69l3.31,1.89Zm14.45-54.8v-7.46l-11.12,6.33,6.56,3.74,4.56-2.61Zm0,5.22v-1.42l-1.23.7,1.23.71Zm0,11.26v-1.06l-.93.53.93.54Zm0-4.86v-2.6l-4.56-2.61-6.56,3.73,6.87,3.9,4.26-2.43Zm0,16.47v-1.42l-1.23.71,1.23.71Zm0,18.47v-3.42l-3.54-2.03-7.58,4.31,6.56,3.74,4.56-2.61Zm0-11.27v-3.43l-4.56-2.59-6.56,3.72,7.58,4.32,3.54-2.02Zm0,4.05v-.25l-.21.12.21.13Zm0,12.43v-1.42l-1.23.71,1.23.71Zm0,11.27v-7.47l-4.56-2.61-6.56,3.74,11.12,6.34Zm0,16.32v-12.53l-14.45-8.23-3.31,1.87v18.89h17.75Zm-14.73-91.91c-1.1,0-2.13-.3-3.02-.81v8.46l3.31,1.88,14.45-8.23v-6.72h-8.71c-.32,3.05-2.89,5.43-6.02,5.43Zm.23-8.85c-1.82,0-3.31,1.49-3.31,3.31s1.48,3.33,3.31,3.33,3.33-1.49,3.33-3.33-1.5-3.31-3.33-3.31Zm44.48.76h10.38l7.58-6.77h-10.38l-7.58,6.77Zm-7.15-6.77l-7.58,6.77h10.93l7.58-6.77h-10.94Z"/>
    <polygon class="cls-1" points="359.63 161.4 378.29 195.12 374.49 195.12 356.7 162.96 356.7 195.12 353.38 195.12 353.38 156.24 356.11 156.24 356.62 155.97 358.48 159.34 360.23 160.43 359.63 161.4"/>
    <rect class="cls-1" x="323.67" y="194" width="23.26" height="15.19"/>
  </g>
  <g>
    <path class="cls-1" d="m641.49,293.04c8.21,0,14.86,5.89,14.86,13.16s-6.65,13.15-14.86,13.15h-77.27c-8.21,0-14.86-5.89-14.86-13.15,0-3.63,1.66-6.92,4.35-9.3,2.68-2.38,6.4-3.85,10.51-3.85h77.27Zm8.29,13.16c0-5.66-5.83-10.25-13.03-10.25h-67.79c-3.6,0-6.86,1.15-9.22,3-2.36,1.86-3.82,4.42-3.82,7.25,0,5.67,5.83,10.26,13.04,10.26h67.79c7.2,0,13.03-4.59,13.03-10.26Z"/>
    <path class="cls-1" d="m625.15,195.9c10.48,0,9.21,10.61,9.21,10.61v15.28h-20.19v23.16l-37.76,13.35v-17.84l19.51-44.56h29.23Zm-8.42,20.96v-12.59h-19.11l-16.1,34.45v11.62l26.55-9.89v-23.59h8.66Z"/>
    <path class="cls-1" d="m639.26,306.2c0,1.36-1.09,2.46-2.45,2.46s-2.46-1.1-2.46-2.46,1.11-2.47,2.46-2.47,2.45,1.11,2.45,2.47Z"/>
    <path class="cls-1" d="m636.81,313.78c-4.18,0-7.59-3.39-7.59-7.58s3.41-7.59,7.59-7.59,7.6,3.4,7.6,7.59-3.41,7.58-7.6,7.58Zm4.62-7.58c0-2.55-2.07-4.61-4.62-4.61s-4.61,2.06-4.61,4.61,2.07,4.61,4.61,4.61,4.62-2.06,4.62-4.61Z"/>
    <path class="cls-1" d="m646.5,243.22h-19.04v3.45h19.04v-3.45Zm.18,7.13h-19.06v3.46h19.06v-3.46Zm-79.91,16.37l51.46-17.44v-23.61h25.49s9.57-.48,9.57,11.64v40.47h-86.51v-11.06Zm80.07-26.27v-3.46h-19.04v3.46h19.04Zm-.5,19.57v-3.46h-19.04v3.46h19.04Z"/>
    <rect class="cls-1" x="610.55" y="300.51" width="4.84" height="11.39"/>
    <rect class="cls-1" x="600.73" y="300.51" width="4.84" height="11.39"/>
    <path class="cls-1" d="m616.73,286.35v-2.62c0-.71-.58-1.29-1.29-1.29s-1.28.58-1.28,1.29v2.62c0,.71.57,1.28,1.28,1.28s1.29-.57,1.29-1.28Zm-11.89-6.5h20.31v10.37h-20.31v-10.37Zm3.49,3.87v2.62c0,.71.57,1.28,1.29,1.28s1.28-.57,1.28-1.28v-2.62c0-.71-.59-1.29-1.28-1.29s-1.29.58-1.29,1.29Zm13.67,2.62v-2.62c0-.71-.57-1.28-1.29-1.28s-1.29.57-1.29,1.28v2.62c0,.71.58,1.29,1.29,1.29s1.29-.58,1.29-1.29Z"/>
    <rect class="cls-1" x="591.05" y="300.51" width="4.84" height="11.39"/>
    <path class="cls-1" d="m564.84,171.93l7.74-4.17c1.82-.97,2.85-2.83,2.87-4.75h3.11l8.35,43.49-12.96,27.03-9.1-61.61Z"/>
    <path class="cls-1" d="m573.94,308.67c-1.36,0-2.47-1.11-2.47-2.47s1.11-2.46,2.47-2.46,2.46,1.1,2.46,2.46-1.11,2.47-2.46,2.47Z"/>
    <path class="cls-1" d="m569.91,163.02c0-1.74-1.4-3.14-3.14-3.14s-3.14,1.41-3.14,3.14,1.4,3.14,3.14,3.14,3.14-1.41,3.14-3.14Zm-41.63,20.08c-1.74,0-3.14,1.4-3.14,3.14s1.4,3.15,3.14,3.15,3.15-1.41,3.15-3.15-1.41-3.14-3.15-3.14Zm17.79,26.05h-7.54l-16.64-11.26v-14.63h.03c.16-1.76,1.18-3.39,2.84-4.29l41.25-22.21c2.66-1.43,5.98-.43,7.4,2.22,1.44,2.66.44,5.98-2.22,7.41l-36.7,19.76,4.03,2.18v14.25l7.54,6.57Z"/>
    <path class="cls-1" d="m573.94,301.59c-2.55,0-4.62,2.07-4.62,4.61s2.08,4.62,4.62,4.62,4.61-2.07,4.61-4.62-2.08-4.61-4.61-4.61Zm0,12.2c-4.19,0-7.6-3.4-7.6-7.59s3.41-7.58,7.6-7.58,7.58,3.39,7.58,7.58-3.4,7.59-7.58,7.59Z"/>
    <path class="cls-1" d="m568.45,163.02c0,.93-.76,1.68-1.68,1.68s-1.68-.75-1.68-1.68.75-1.68,1.68-1.68,1.68.75,1.68,1.68Z"/>
    <path class="cls-1" d="m529.95,186.24c0,.93-.75,1.69-1.67,1.69s-1.68-.75-1.68-1.69.76-1.68,1.68-1.68,1.67.75,1.67,1.68Z"/>
  </g>
  <g>
    <path class="cls-1" d="m828.01,592.29l-55.41,81.12s-8.09,9.1-18.16,2.22c-10.08-6.89-7.21-13.83-7.21-13.83l58.07-85.03s-1.99,5.7,6.88,11.75c8.86,6.05,15.84,3.77,15.84,3.77Z"/>
    <path class="cls-1" d="m817.72,580.4c-.02-.96-.82-2.19-2.12-3.08-1.72-1.17-3.65-1.32-4.33-.34-.58.86-.02,2.29,1.27,3.42-.19-.11-.38-.23-.57-.36-2.26-1.54-3.37-3.84-2.48-5.14.89-1.29,3.43-1.1,5.69.44,2.2,1.5,3.31,3.73,2.54,5.04Z"/>
    <path class="cls-1" d="m818.73,574.29c-3.62-2.47-7.59-3.31-10.12-2.38,2.62-3.31,9.51-2.69,15.63,1.49,6.28,4.29,9.37,10.68,6.91,14.28-2.46,3.61-9.54,3.05-15.82-1.24-.52-.36-1.02-.73-1.5-1.11,4.23,2.19,8.53,2.2,10.15-.18,1.87-2.74-.48-7.61-5.25-10.87Z"/>
    <path class="cls-1" d="m756.83,542.39s4.69,11.67,18.71,21.25c14.03,9.58,27.02,11.4,27.02,11.4l-57.18,83.73s-18.21-.35-28.82-7.6c-10.6-7.24-19.05-21.92-19.05-21.92l59.32-86.86Z"/>
    <path class="cls-1" d="m750.23,536.7c.67-.98-.17-2.74-1.89-3.91-1.3-.89-2.73-1.19-3.64-.85.94-1.2,3.42-.97,5.62.53,2.25,1.54,3.36,3.84,2.48,5.14-.88,1.29-3.43,1.1-5.68-.45-.19-.13-.37-.27-.54-.4,1.52.79,3.07.79,3.65-.06Z"/>
    <path class="cls-1" d="m733.03,522.07c2.46-3.6,9.54-3.05,15.82,1.24,6.12,4.18,9.21,10.38,7.08,14.02-.05-2.69-2.27-6.08-5.89-8.56-4.78-3.26-10.16-3.68-12.03-.94-1.63,2.38-.05,6.38,3.52,9.52-.53-.31-1.06-.64-1.59-.99-6.28-4.29-9.37-10.68-6.91-14.29Z"/>
    <path class="cls-1" d="m679.03,625.53c-10.08-6.88-4.55-17.73-4.55-17.73l55.4-81.13s.41,7.33,9.28,13.39c8.86,6.05,13.44,2.13,13.44,2.13l-58.07,85.03s-5.43,5.2-15.5-1.68Z"/>
  </g>
</svg>