<?xml version="1.0" encoding="UTF-8"?><svg id="Layer_1" xmlns="http://www.w3.org/2000/svg" viewBox="0 0 60 60"><defs><style>.cls-1{fill:none;}.cls-2{fill:#ef568f;}.cls-3{fill:#449fd8;}</style></defs><rect class="cls-1" width="60" height="60"/><circle class="cls-3" cx="30" cy="35" r="3"/><path class="cls-3" d="m33.19,39.6l-2.05-.59c-.18-.05-.36,0-.49.13l-.65.65-.65-.65c-.13-.13-.31-.18-.49-.13l-2.05.59c-1.07.31-1.81,1.29-1.81,2.4v2.49c0,.83.67,1.5,1.5,1.5h7c.83,0,1.5-.67,1.5-1.5v-2.49c0-1.11-.75-2.1-1.81-2.4Z"/><circle class="cls-3" cx="41" cy="17" r="3"/><path class="cls-3" d="m44.19,21.6l-2.05-.59c-.18-.05-.36,0-.49.13l-.65.65-.65-.65c-.13-.13-.31-.18-.49-.13l-2.05.59c-1.07.31-1.81,1.29-1.81,2.4v2.49c0,.83.67,1.5,1.5,1.5h7c.83,0,1.5-.67,1.5-1.5v-2.49c0-1.11-.75-2.1-1.81-2.4Z"/><circle class="cls-3" cx="19" cy="17" r="3"/><path class="cls-3" d="m24,26.5v-2.49c0-1.11-.75-2.1-1.81-2.4l-2.05-.59c-.18-.05-.36,0-.49.13l-.65.65-.65-.65c-.13-.13-.31-.18-.49-.13l-2.05.59c-1.07.31-1.81,1.29-1.81,2.4v2.49c0,.83.67,1.5,1.5,1.5h7c.83,0,1.5-.67,1.5-1.5Z"/><path class="cls-2" d="m23.8,20.91c3.71-2.54,8.69-2.54,12.4,0,.09.06.18.09.28.09.16,0,.32-.08.41-.22.16-.23.1-.54-.13-.69-4.05-2.77-9.49-2.77-13.53,0-.23.16-.29.47-.13.69.16.23.47.29.7.13Z"/><path class="cls-2" d="m19.01,29.52c.01-.28-.2-.51-.48-.52,0,0-.02,0-.02,0-.27,0-.49.21-.5.48-.18,4.11,1.82,8.11,5.22,10.44.09.06.18.09.28.09.16,0,.32-.08.41-.22.16-.23.1-.54-.13-.69-3.12-2.13-4.96-5.8-4.79-9.57Z"/><path class="cls-2" d="m41.47,29c-.28.01-.49.25-.48.52.17,3.76-1.66,7.42-4.77,9.56-.23.16-.29.47-.13.7.1.14.25.22.41.22.1,0,.2-.03.28-.09,3.4-2.33,5.39-6.32,5.21-10.43-.01-.27-.2-.51-.52-.48Z"/></svg>